<svg width="45" height="45" viewBox="0 0 45 45" fill="none" xmlns="http://www.w3.org/2000/svg">
<rect x="0.5" y="0.5" width="44" height="44" stroke="#7A9CA5"/>
<path d="M22.5 18.6074C20.125 18.6074 18.2324 20.5371 18.2324 22.875C18.2324 25.25 20.125 27.1426 22.5 27.1426C24.8379 27.1426 26.7676 25.25 26.7676 22.875C26.7676 20.5371 24.8379 18.6074 22.5 18.6074ZM22.5 25.6582C20.9785 25.6582 19.7168 24.4336 19.7168 22.875C19.7168 21.3535 20.9414 20.1289 22.5 20.1289C24.0215 20.1289 25.2461 21.3535 25.2461 22.875C25.2461 24.4336 24.0215 25.6582 22.5 25.6582ZM27.918 18.459C27.918 17.9023 27.4727 17.457 26.916 17.457C26.3594 17.457 25.9141 17.9023 25.9141 18.459C25.9141 19.0156 26.3594 19.4609 26.916 19.4609C27.4727 19.4609 27.918 19.0156 27.918 18.459ZM30.7383 19.4609C30.6641 18.125 30.3672 16.9375 29.4023 15.9727C28.4375 15.0078 27.25 14.7109 25.9141 14.6367C24.541 14.5625 20.4219 14.5625 19.0488 14.6367C17.7129 14.7109 16.5625 15.0078 15.5605 15.9727C14.5957 16.9375 14.2988 18.125 14.2246 19.4609C14.1504 20.834 14.1504 24.9531 14.2246 26.3262C14.2988 27.6621 14.5957 28.8125 15.5605 29.8145C16.5625 30.7793 17.7129 31.0762 19.0488 31.1504C20.4219 31.2246 24.541 31.2246 25.9141 31.1504C27.25 31.0762 28.4375 30.7793 29.4023 29.8145C30.3672 28.8125 30.6641 27.6621 30.7383 26.3262C30.8125 24.9531 30.8125 20.834 30.7383 19.4609ZM28.957 27.7734C28.6973 28.5156 28.1035 29.0723 27.3984 29.3691C26.2852 29.8145 23.6875 29.7031 22.5 29.7031C21.2754 29.7031 18.6777 29.8145 17.6016 29.3691C16.8594 29.0723 16.3027 28.5156 16.0059 27.7734C15.5605 26.6973 15.6719 24.0996 15.6719 22.875C15.6719 21.6875 15.5605 19.0898 16.0059 17.9766C16.3027 17.2715 16.8594 16.7148 17.6016 16.418C18.6777 15.9727 21.2754 16.084 22.5 16.084C23.6875 16.084 26.2852 15.9727 27.3984 16.418C28.1035 16.6777 28.6602 17.2715 28.957 17.9766C29.4023 19.0898 29.291 21.6875 29.291 22.875C29.291 24.0996 29.4023 26.6973 28.957 27.7734Z" fill="#141414"/>
</svg>
