<svg width="45" height="45" viewBox="0 0 45 45" fill="none" xmlns="http://www.w3.org/2000/svg">
<rect x="0.5" y="0.5" width="44" height="44" stroke="#7A9CA5"/>
<path d="M18.6406 30V19.4883H15.3711V30H18.6406ZM16.9883 18.082C18.043 18.082 18.8867 17.2031 18.8867 16.1484C18.8867 15.1289 18.043 14.2852 16.9883 14.2852C15.9688 14.2852 15.125 15.1289 15.125 16.1484C15.125 17.2031 15.9688 18.082 16.9883 18.082ZM30.8398 30H30.875V24.2344C30.875 21.4219 30.2422 19.2422 26.9375 19.2422C25.3555 19.2422 24.3008 20.1211 23.8438 20.9297H23.8086V19.4883H20.6797V30H23.9492V24.7969C23.9492 23.4258 24.1953 22.125 25.8828 22.125C27.5703 22.125 27.6055 23.6719 27.6055 24.9023V30H30.8398Z" fill="#141414"/>
</svg>
