<svg width="45" height="45" viewBox="0 0 45 45" fill="none" xmlns="http://www.w3.org/2000/svg">
<rect x="0.5" y="0.5" width="44" height="44" stroke="#7A9CA5"/>
<path d="M30.1367 19.5938C30.8398 19.0664 31.4727 18.4336 31.9648 17.6953C31.332 17.9766 30.5938 18.1875 29.8555 18.2578C30.6289 17.8008 31.1914 17.0977 31.4727 16.2188C30.7695 16.6406 29.9609 16.957 29.1523 17.1328C28.4492 16.3945 27.5 15.9727 26.4453 15.9727C24.4062 15.9727 22.7539 17.625 22.7539 19.6641C22.7539 19.9453 22.7891 20.2266 22.8594 20.5078C19.8008 20.332 17.0586 18.8555 15.2305 16.6406C14.9141 17.168 14.7383 17.8008 14.7383 18.5039C14.7383 19.7695 15.3711 20.8945 16.3906 21.5625C15.793 21.5273 15.1953 21.3867 14.7031 21.1055V21.1406C14.7031 22.9336 15.9688 24.4102 17.6562 24.7617C17.375 24.832 17.0234 24.9023 16.707 24.9023C16.4609 24.9023 16.25 24.8672 16.0039 24.832C16.4609 26.3086 17.832 27.3633 19.4492 27.3984C18.1836 28.3828 16.6016 28.9805 14.8789 28.9805C14.5625 28.9805 14.2812 28.9453 14 28.9102C15.6172 29.9648 17.5508 30.5625 19.6602 30.5625C26.4453 30.5625 30.1367 24.9727 30.1367 20.0859C30.1367 19.9102 30.1367 19.7695 30.1367 19.5938Z" fill="#141414"/>
</svg>
